G04*
G04 #@! TF.GenerationSoftware,Altium Limited,Altium Designer,18.1.9 (240)*
G04*
G04 Layer_Color=8388736*
%FSLAX25Y25*%
%MOIN*%
G70*
G01*
G75*
%ADD26R,0.04343X0.03162*%
%ADD27R,0.03162X0.04343*%
%ADD28R,0.04737X0.04147*%
%ADD29R,0.04147X0.04737*%
G04:AMPARAMS|DCode=30|XSize=38.96mil|YSize=43.52mil|CornerRadius=4.16mil|HoleSize=0mil|Usage=FLASHONLY|Rotation=225.000|XOffset=0mil|YOffset=0mil|HoleType=Round|Shape=RoundedRectangle|*
%AMROUNDEDRECTD30*
21,1,0.03896,0.03521,0,0,225.0*
21,1,0.03065,0.04352,0,0,225.0*
1,1,0.00831,-0.02329,0.00161*
1,1,0.00831,-0.00161,0.02329*
1,1,0.00831,0.02329,-0.00161*
1,1,0.00831,0.00161,-0.02329*
%
%ADD30ROUNDEDRECTD30*%
G04:AMPARAMS|DCode=31|XSize=39.97mil|YSize=35.56mil|CornerRadius=4.14mil|HoleSize=0mil|Usage=FLASHONLY|Rotation=0.000|XOffset=0mil|YOffset=0mil|HoleType=Round|Shape=RoundedRectangle|*
%AMROUNDEDRECTD31*
21,1,0.03997,0.02728,0,0,0.0*
21,1,0.03169,0.03556,0,0,0.0*
1,1,0.00828,0.01585,-0.01364*
1,1,0.00828,-0.01585,-0.01364*
1,1,0.00828,-0.01585,0.01364*
1,1,0.00828,0.01585,0.01364*
%
%ADD31ROUNDEDRECTD31*%
G04:AMPARAMS|DCode=32|XSize=130.99mil|YSize=35.56mil|CornerRadius=4.14mil|HoleSize=0mil|Usage=FLASHONLY|Rotation=90.000|XOffset=0mil|YOffset=0mil|HoleType=Round|Shape=RoundedRectangle|*
%AMROUNDEDRECTD32*
21,1,0.13099,0.02728,0,0,90.0*
21,1,0.12272,0.03556,0,0,90.0*
1,1,0.00828,0.01364,0.06136*
1,1,0.00828,0.01364,-0.06136*
1,1,0.00828,-0.01364,-0.06136*
1,1,0.00828,-0.01364,0.06136*
%
%ADD32ROUNDEDRECTD32*%
G04:AMPARAMS|DCode=33|XSize=38.96mil|YSize=43.52mil|CornerRadius=4.16mil|HoleSize=0mil|Usage=FLASHONLY|Rotation=135.000|XOffset=0mil|YOffset=0mil|HoleType=Round|Shape=RoundedRectangle|*
%AMROUNDEDRECTD33*
21,1,0.03896,0.03521,0,0,135.0*
21,1,0.03065,0.04352,0,0,135.0*
1,1,0.00831,0.00161,0.02329*
1,1,0.00831,0.02329,0.00161*
1,1,0.00831,-0.00161,-0.02329*
1,1,0.00831,-0.02329,-0.00161*
%
%ADD33ROUNDEDRECTD33*%
%ADD34R,0.10642X0.10642*%
%ADD35R,0.01981X0.03674*%
%ADD36R,0.03674X0.01981*%
%ADD37R,0.07887X0.05918*%
%ADD38R,0.07099X0.07099*%
%ADD39C,0.07099*%
%ADD40C,0.02572*%
%ADD41C,0.02769*%
D26*
X36012Y48720D02*
D03*
Y54626D02*
D03*
X49212Y48720D02*
D03*
Y54626D02*
D03*
X55708Y48720D02*
D03*
Y54626D02*
D03*
X29626D02*
D03*
Y48720D02*
D03*
D27*
X24311Y24975D02*
D03*
X18405D02*
D03*
X24311Y18209D02*
D03*
X18405D02*
D03*
D28*
X42618Y54527D02*
D03*
Y48819D02*
D03*
X24901Y4823D02*
D03*
Y10531D02*
D03*
D29*
X18504Y38705D02*
D03*
X24212D02*
D03*
Y31938D02*
D03*
X18504D02*
D03*
D30*
X34338Y5106D02*
D03*
X46960Y17728D02*
D03*
D31*
X36098Y4134D02*
D03*
Y18701D02*
D03*
X45201D02*
D03*
Y4134D02*
D03*
D32*
X33366Y11417D02*
D03*
X47933D02*
D03*
D33*
X34338Y17728D02*
D03*
X46960Y5106D02*
D03*
D34*
X40649Y34768D02*
D03*
D35*
X36712Y42504D02*
D03*
X38681D02*
D03*
X40649D02*
D03*
X42618D02*
D03*
X44586D02*
D03*
Y27031D02*
D03*
X42618D02*
D03*
X40649D02*
D03*
X38681D02*
D03*
X36712D02*
D03*
D36*
X48386Y38705D02*
D03*
Y36736D02*
D03*
Y34768D02*
D03*
Y32799D02*
D03*
Y30831D02*
D03*
X32913D02*
D03*
Y32799D02*
D03*
Y34768D02*
D03*
Y36736D02*
D03*
Y38705D02*
D03*
D37*
X57480Y5708D02*
D03*
Y17126D02*
D03*
D38*
X69350Y44528D02*
D03*
X9350D02*
D03*
D39*
X69350Y34528D02*
D03*
Y24528D02*
D03*
Y14528D02*
D03*
X9350Y34528D02*
D03*
Y24528D02*
D03*
Y14528D02*
D03*
D40*
X26181Y45669D02*
D03*
X41339D02*
D03*
X37402D02*
D03*
X28960Y36736D02*
D03*
X28543Y18209D02*
D03*
X57480Y24527D02*
D03*
D41*
X42815Y32602D02*
D03*
X38484D02*
D03*
X42815Y36933D02*
D03*
X38484D02*
D03*
M02*
